<svg xmlns="http://www.w3.org/2000/svg" width="1600" height="820" viewBox="0 0 1600 820">
  <rect width="1600" height="820" fill="#ffffff"/>
  <text x="8" y="36" font-family="Arial, sans-serif" font-size="30">Quarto Dashboard</text>
  <rect x="8" y="60" width="520" height="590" fill="#f7f7f7" stroke="#c6c6c6"/>
  <g font-family="Arial, sans-serif" font-size="15">
    <text x="26" y="92" font-weight="700">Treatment Group</text>
    <rect x="26" y="110" width="480" height="42" fill="#fff" stroke="#ddd"/><text x="38" y="136">Xanomeline High Dose, Xanomeline Low Dose, Placebo</text><path d="M492 126 l6 6 l6 -6" fill="none" stroke="#111"/>
    <text x="26" y="198" font-weight="700">Subject</text>
    <rect x="26" y="216" width="480" height="42" fill="#fff" stroke="#ddd"/><text x="38" y="242">01-701-1015, 01-701-1023, 01-701-1028...</text><path d="M492 232 l6 6 l6 -6" fill="none" stroke="#111"/>
    <text x="26" y="312">Total Treatment Duration (Days)</text>
    <line x1="28" y1="354" x2="506" y2="354" stroke="#2d8ae8" stroke-width="7"/><circle cx="85" cy="354" r="10" fill="#ddd" stroke="#aaa"/><circle cx="462" cy="354" r="10" fill="#ddd" stroke="#aaa"/><rect x="76" y="326" width="22" height="18" fill="#2d8ae8"/><text x="82" y="340" fill="#fff" font-size="11">26</text><rect x="452" y="326" width="28" height="18" fill="#2d8ae8"/><text x="458" y="340" fill="#fff" font-size="11">197</text>
    <text x="26" y="420">Baseline Weight (kg)</text>
    <line x1="28" y1="462" x2="506" y2="462" stroke="#2d8ae8" stroke-width="7"/><circle cx="126" cy="462" r="10" fill="#ddd" stroke="#aaa"/><circle cx="498" cy="462" r="10" fill="#ddd" stroke="#aaa"/>
    <text x="26" y="528">Baseline Height (cm)</text>
    <line x1="28" y1="570" x2="506" y2="570" stroke="#2d8ae8" stroke-width="7"/><circle cx="210" cy="570" r="10" fill="#ddd" stroke="#aaa"/><circle cx="498" cy="570" r="10" fill="#ddd" stroke="#aaa"/>
  </g>
  <line x1="26" y1="604" x2="506" y2="604" stroke="#ccc"/>
  <g font-family="Arial, sans-serif" font-size="15" font-weight="700" fill="#fff">
    <rect x="26" y="620" width="240" height="34" fill="#2f3437"/><text x="38" y="642">Download Treatment Duration Plot</text>
    <rect x="26" y="676" width="222" height="34" fill="#2f3437"/><text x="38" y="698">Download Height vs Weight Plot</text>
    <rect x="26" y="732" width="210" height="34" fill="#2f3437"/><text x="38" y="754">Download Filtered Table CSV</text>
  </g>
  <text x="548" y="82" font-family="Arial, sans-serif" font-size="20">Treatment Duration (Days) by Treatment Group</text>
  <text x="1088" y="82" font-family="Arial, sans-serif" font-size="20">Baseline Weight (kg) vs Baseline Height (cm)</text>
  <rect x="592" y="128" width="476" height="284" fill="#fff" stroke="#999"/><rect x="1138" y="128" width="450" height="284" fill="#fff" stroke="#999"/>
  <g stroke="#e8e8e8"><line x1="592" y1="352" x2="1068" y2="352"/><line x1="592" y1="292" x2="1068" y2="292"/><line x1="592" y1="232" x2="1068" y2="232"/><line x1="592" y1="172" x2="1068" y2="172"/><line x1="1138" y1="352" x2="1588" y2="352"/><line x1="1138" y1="292" x2="1588" y2="292"/><line x1="1138" y1="232" x2="1588" y2="232"/><line x1="1138" y1="172" x2="1588" y2="172"/></g>
  <g stroke="#222" stroke-width="2"><rect x="660" y="210" width="88" height="138" fill="#d95f02"/><line x1="660" y1="282" x2="748" y2="282"/><rect x="806" y="210" width="88" height="138" fill="#cc79a7"/><line x1="806" y1="276" x2="894" y2="276"/><rect x="950" y="242" width="88" height="92" fill="#0072b2"/><line x1="950" y1="285" x2="1038" y2="285"/></g>
  <g><circle cx="1210" cy="178" r="5" fill="#d95f02"/><circle cx="1276" cy="244" r="5" fill="#d95f02"/><circle cx="1380" cy="318" r="5" fill="#d95f02"/><path d="M1258 194 L1266 208 L1250 208 Z" fill="#cc79a7"/><path d="M1430 228 L1438 242 L1422 242 Z" fill="#cc79a7"/><path d="M1520 326 L1528 340 L1512 340 Z" fill="#cc79a7"/><rect x="1320" y="172" width="10" height="10" fill="#0072b2"/><rect x="1362" y="286" width="10" height="10" fill="#0072b2"/><rect x="1482" y="218" width="10" height="10" fill="#0072b2"/></g>
  <text x="548" y="468" font-family="Arial, sans-serif" font-size="22">Subject-Level Data</text>
  <rect x="548" y="520" width="1034" height="250" fill="#fff"/>
  <g font-family="Arial, sans-serif" font-size="13">
    <text x="560" y="552" font-weight="700">Unique Subject Identifier</text><text x="770" y="552" font-weight="700">Treatment Group</text><text x="1020" y="552" font-weight="700">Total Treatment Duration (Days)</text><text x="1260" y="552" font-weight="700">Baseline Weight (kg)</text><text x="1450" y="552" font-weight="700">Baseline Height (cm)</text>
    <rect x="548" y="606" width="1034" height="34" fill="#f1f1f1"/><text x="560" y="628">01-701-1023</text><text x="770" y="628">Placebo</text><text x="1115" y="628">28</text><text x="1340" y="628">84</text><text x="1568" y="628" text-anchor="end">136</text>
    <text x="560" y="672">01-701-1028</text><text x="770" y="672">Xanomeline High Dose</text><text x="1115" y="672">180</text><text x="1340" y="672">68</text><text x="1568" y="672" text-anchor="end">103</text>
  </g>
</svg>
