<svg xmlns="http://www.w3.org/2000/svg" width="1600" height="820" viewBox="0 0 1600 820">
  <rect width="1600" height="820" fill="#ffffff"/>
  <text x="24" y="42" font-family="Arial, sans-serif" font-size="30" fill="#222">Quarto Dashboard</text>
  <text x="24" y="78" font-family="Arial, sans-serif" font-size="20" fill="#222">Treatment Duration (Days) by Treatment Group</text>
  <text x="812" y="78" font-family="Arial, sans-serif" font-size="20" fill="#222">Baseline Weight (kg) vs Baseline Height (cm)</text>
  <rect x="46" y="128" width="745" height="280" fill="#fff" stroke="#999"/>
  <g stroke="#e6e6e6" stroke-width="1">
    <line x1="46" y1="360" x2="791" y2="360"/><line x1="46" y1="310" x2="791" y2="310"/><line x1="46" y1="260" x2="791" y2="260"/><line x1="46" y1="210" x2="791" y2="210"/><line x1="46" y1="160" x2="791" y2="160"/>
    <line x1="184" y1="128" x2="184" y2="408"/><line x1="401" y1="128" x2="401" y2="408"/><line x1="639" y1="128" x2="639" y2="408"/>
  </g>
  <text x="288" y="112" font-family="Arial, sans-serif" font-size="15" fill="#000">Treatment Group</text>
  <rect x="404" y="99" width="12" height="12" fill="#d95f02" stroke="#111"/><text x="424" y="111" font-family="Arial, sans-serif" font-size="13">Xanomeline High Dose</text>
  <rect x="556" y="99" width="12" height="12" fill="#cc79a7" stroke="#111"/><text x="576" y="111" font-family="Arial, sans-serif" font-size="13">Xanomeline Low Dose</text>
  <rect x="710" y="99" width="12" height="12" fill="#0072b2" stroke="#111"/><text x="730" y="111" font-family="Arial, sans-serif" font-size="13">Placebo</text>
  <g stroke="#222" stroke-width="2">
    <line x1="184" y1="184" x2="184" y2="392"/><rect x="136" y="207" width="96" height="142" fill="#d95f02" fill-opacity=".96"/><line x1="136" y1="285" x2="232" y2="285"/>
    <line x1="401" y1="190" x2="401" y2="392"/><rect x="353" y="212" width="96" height="142" fill="#cc79a7" fill-opacity=".96"/><line x1="353" y1="289" x2="449" y2="289"/>
    <line x1="639" y1="184" x2="639" y2="350"/><rect x="591" y="214" width="96" height="112" fill="#0072b2" fill-opacity=".96"/><line x1="591" y1="273" x2="687" y2="273"/>
  </g>
  <text x="132" y="430" font-family="Arial, sans-serif" font-size="13">Xanomeline High Dose</text>
  <text x="350" y="430" font-family="Arial, sans-serif" font-size="13">Xanomeline Low Dose</text>
  <text x="627" y="430" font-family="Arial, sans-serif" font-size="13">Placebo</text>
  <text x="368" y="455" font-family="Arial, sans-serif" font-size="16">Treatment Group</text>
  <text x="8" y="282" transform="rotate(-90 8 282)" font-family="Arial, sans-serif" font-size="16">Treatment Duration (Days)</text>
  <rect x="852" y="128" width="745" height="280" fill="#fff" stroke="#999"/>
  <g stroke="#e6e6e6" stroke-width="1">
    <line x1="852" y1="360" x2="1597" y2="360"/><line x1="852" y1="320" x2="1597" y2="320"/><line x1="852" y1="280" x2="1597" y2="280"/><line x1="852" y1="240" x2="1597" y2="240"/><line x1="852" y1="200" x2="1597" y2="200"/><line x1="852" y1="160" x2="1597" y2="160"/>
    <line x1="982" y1="128" x2="982" y2="408"/><line x1="1112" y1="128" x2="1112" y2="408"/><line x1="1242" y1="128" x2="1242" y2="408"/><line x1="1372" y1="128" x2="1372" y2="408"/><line x1="1502" y1="128" x2="1502" y2="408"/>
  </g>
  <text x="1038" y="112" font-family="Arial, sans-serif" font-size="15">Treatment Group</text>
  <circle cx="1167" cy="106" r="5" fill="#d95f02"/><text x="1180" y="111" font-family="Arial, sans-serif" font-size="13">Xanomeline High Dose</text>
  <path d="M1327 99 L1335 113 L1319 113 Z" fill="#cc79a7"/><text x="1344" y="111" font-family="Arial, sans-serif" font-size="13">Xanomeline Low Dose</text>
  <rect x="1498" y="101" width="10" height="10" fill="#0072b2"/><text x="1516" y="111" font-family="Arial, sans-serif" font-size="13">Placebo</text>
  <g opacity=".95">
    <circle cx="902" cy="216" r="5" fill="#d95f02"/><circle cx="915" cy="340" r="5" fill="#d95f02"/><circle cx="964" cy="292" r="5" fill="#d95f02"/><circle cx="1050" cy="208" r="5" fill="#d95f02"/><circle cx="1130" cy="360" r="5" fill="#d95f02"/><circle cx="1210" cy="260" r="5" fill="#d95f02"/><circle cx="1295" cy="172" r="5" fill="#d95f02"/><circle cx="1440" cy="335" r="5" fill="#d95f02"/><circle cx="1518" cy="230" r="5" fill="#d95f02"/>
    <path d="M935 170 L943 184 L927 184 Z" fill="#cc79a7"/><path d="M1000 330 L1008 344 L992 344 Z" fill="#cc79a7"/><path d="M1095 238 L1103 252 L1087 252 Z" fill="#cc79a7"/><path d="M1190 384 L1198 398 L1182 398 Z" fill="#cc79a7"/><path d="M1316 268 L1324 282 L1308 282 Z" fill="#cc79a7"/><path d="M1420 200 L1428 214 L1412 214 Z" fill="#cc79a7"/><path d="M1544 318 L1552 332 L1536 332 Z" fill="#cc79a7"/>
    <rect x="890" y="300" width="9" height="9" fill="#0072b2"/><rect x="970" y="185" width="9" height="9" fill="#0072b2"/><rect x="1035" y="350" width="9" height="9" fill="#0072b2"/><rect x="1152" y="222" width="9" height="9" fill="#0072b2"/><rect x="1264" y="318" width="9" height="9" fill="#0072b2"/><rect x="1368" y="188" width="9" height="9" fill="#0072b2"/><rect x="1488" y="282" width="9" height="9" fill="#0072b2"/><rect x="1558" y="210" width="9" height="9" fill="#0072b2"/>
  </g>
  <text x="1147" y="455" font-family="Arial, sans-serif" font-size="16">Baseline Height (cm)</text>
  <text x="826" y="300" transform="rotate(-90 826 300)" font-family="Arial, sans-serif" font-size="16">Baseline Weight (kg)</text>
  <text x="24" y="500" font-family="Arial, sans-serif" font-size="22" fill="#222">Subject-Level Data</text>
  <text x="24" y="532" font-family="Arial, sans-serif" font-size="14">Show</text>
  <rect x="62" y="512" width="54" height="34" fill="#fff" stroke="#ccc"/><text x="82" y="534" font-family="Arial, sans-serif" font-size="14">5</text><text x="124" y="532" font-family="Arial, sans-serif" font-size="14">entries</text>
  <text x="1400" y="532" font-family="Arial, sans-serif" font-size="14">Search:</text><rect x="1452" y="512" width="136" height="34" fill="#fff" stroke="#ccc"/>
  <rect x="0" y="588" width="1600" height="194" fill="#fff"/>
  <g font-family="Arial, sans-serif" font-size="14">
    <text x="24" y="600" font-weight="700">Unique Subject Identifier</text><text x="318" y="600" font-weight="700">Treatment Group</text><text x="768" y="600" font-weight="700">Total Treatment Duration (Days)</text><text x="1148" y="600" font-weight="700">Baseline Weight (kg)</text><text x="1456" y="600" font-weight="700">Baseline Height (cm)</text>
    <rect x="8" y="620" width="1520" height="34" fill="#fff" stroke="#d9dfe6"/><text x="22" y="642" fill="#777">All</text>
    <rect x="0" y="670" width="1600" height="34" fill="#f1f1f1"/><text x="8" y="692">01-701-1015</text><text x="318" y="692">Placebo</text><text x="976" y="692">182</text><text x="1270" y="692">48</text><text x="1580" y="692" text-anchor="end">18</text>
    <text x="8" y="730">01-701-1023</text><text x="318" y="730">Placebo</text><text x="976" y="730">28</text><text x="1270" y="730">84</text><text x="1580" y="730" text-anchor="end">136</text>
    <rect x="0" y="744" width="1600" height="34" fill="#f1f1f1"/><text x="8" y="767">01-701-1028</text><text x="318" y="767">Xanomeline High Dose</text><text x="976" y="767">180</text><text x="1270" y="767">68</text><text x="1580" y="767" text-anchor="end">103</text>
  </g>
  <text x="12" y="805" font-family="Arial, sans-serif" font-size="14">Showing 1 to 5 of 252 entries</text>
</svg>
